<?xml version="1.0" standalone="no"?>
<!DOCTYPE svg PUBLIC "-//W3C//DTD SVG 20010904//EN"
 "http://www.w3.org/TR/2001/REC-SVG-20010904/DTD/svg10.dtd">
<svg version="1.0" xmlns="http://www.w3.org/2000/svg"
 width="700.000000pt" height="700.000000pt" viewBox="0 0 700.000000 700.000000"
 preserveAspectRatio="xMidYMid meet">
<metadata>
Created by potrace 1.14, written by Peter Selinger 2001-2017
</metadata>
<g transform="translate(0.000000,700.000000) scale(0.100000,-0.100000)"
fill="#000000" stroke="none">
<path d="M1025 6466 c-86 -39 -128 -142 -91 -229 18 -43 78 -95 118 -102 37
-6 1137 -67 1548 -86 468 -21 1129 -15 1650 15 656 37 1028 48 1391 40 349 -7
349 -7 403 56 54 65 54 155 0 220 -50 59 -66 63 -344 73 -312 12 -827 -2
-1460 -39 -367 -22 -528 -26 -920 -26 -497 0 -755 9 -1688 62 -597 34 -567 33
-607 16z"/>
<path d="M1485 5874 c-60 -9 -143 -16 -183 -15 -112 2 -178 -40 -202 -130 -19
-71 6 -2006 45 -3484 30 -1122 64 -1722 102 -1803 9 -19 34 -46 56 -60 85 -56
210 -24 252 64 20 42 19 56 -9 494 -27 406 -68 1662 -55 1674 11 12 205 36
368 47 295 19 710 3 1386 -56 154 -13 440 -36 635 -50 641 -46 980 -84 1433
-161 176 -29 276 -50 284 -57 3 -3 11 -214 18 -469 19 -657 44 -1144 70 -1381
14 -129 24 -153 85 -194 68 -47 155 -38 215 22 54 54 59 90 41 289 -29 327
-47 729 -71 1656 -30 1147 -36 1512 -41 2470 l-5 975 -26 33 c-29 39 -93 72
-138 72 -16 0 -50 -10 -75 -21 -58 -28 -269 -38 -398 -19 -77 11 -92 10 -127
-4 -95 -40 -115 -85 -115 -255 l0 -129 -32 -8 c-18 -4 -100 -6 -183 -4 -82 1
-181 3 -220 4 -59 1 -75 -3 -103 -22 -57 -41 -72 -85 -72 -215 l0 -114 -82 -6
c-46 -4 -144 -2 -219 5 l-136 12 -46 -27 c-76 -45 -87 -80 -87 -284 l0 -171
-42 -6 c-81 -11 -444 -19 -532 -11 l-88 7 7 156 c10 258 10 248 -16 286 -50
73 -149 97 -240 57 -30 -13 -81 -21 -158 -26 l-114 -7 6 162 c7 181 4 194 -57
248 -51 45 -112 52 -185 21 -45 -19 -78 -24 -173 -27 l-118 -4 0 142 c0 85 -4
150 -11 163 -22 43 -74 88 -114 98 -22 6 -49 19 -60 29 -35 30 -86 40 -225 45
-91 3 -171 -1 -245 -11z m289 -340 c14 -5 16 -28 16 -153 0 -80 5 -162 10
-183 13 -44 75 -103 127 -118 21 -6 118 -14 216 -17 l177 -6 0 -124 c0 -89 4
-132 14 -152 21 -39 79 -88 113 -95 68 -13 282 -27 335 -21 l58 7 0 -164 c0
-186 11 -225 74 -273 29 -22 52 -29 117 -36 163 -16 467 -21 661 -10 256 14
391 43 446 94 49 45 56 73 60 230 l4 147 32 0 c105 1 275 21 329 40 161 54
207 107 207 236 l0 72 118 6 c64 4 145 13 180 20 46 10 73 10 101 3 73 -20
168 29 197 100 9 21 14 74 14 153 l0 120 90 0 90 0 0 -428 c0 -236 3 -639 7
-896 5 -400 4 -466 -8 -462 -8 3 -95 19 -194 35 -475 79 -833 120 -1420 161
-159 11 -447 34 -640 50 -915 78 -1379 87 -1730 35 -59 -9 -109 -14 -112 -11
-8 8 -23 1610 -15 1618 18 17 290 36 326 22z m950 -1970 c122 -8 379 -28 571
-44 193 -16 481 -39 640 -50 592 -41 965 -85 1461 -172 l181 -31 6 -156 c4
-86 7 -214 7 -284 0 -118 -1 -128 -17 -123 -10 3 -128 23 -263 45 -424 70
-819 114 -1345 151 -159 11 -450 34 -645 50 -538 45 -751 59 -1030 66 -263 7
-557 -6 -720 -30 -47 -7 -87 -11 -90 -9 -3 3 -7 128 -9 278 -3 259 -2 273 15
279 47 14 231 38 354 46 175 11 604 4 884 -16z"/>
<path d="M2265 2045 c-51 -18 -101 -72 -115 -124 -7 -28 -10 -258 -8 -744 l3
-703 28 -43 c71 -107 229 -105 292 3 l25 43 0 727 c0 797 3 756 -60 809 -27
23 -88 48 -115 47 -5 -1 -28 -7 -50 -15z"/>
<path d="M2837 2048 c-50 -13 -103 -67 -117 -117 -7 -27 -10 -270 -8 -748 3
-694 3 -709 24 -743 38 -65 115 -100 190 -86 40 8 106 63 123 104 8 19 11 229
9 758 l-3 731 -28 36 c-47 61 -117 85 -190 65z"/>
<path d="M4342 1949 c-49 -24 -75 -57 -91 -114 -16 -57 -15 -1379 0 -1442 22
-84 113 -144 194 -129 44 9 94 44 122 85 l23 34 0 729 c0 794 3 753 -57 811
-53 50 -123 59 -191 26z"/>
<path d="M4976 1960 c-34 -11 -82 -54 -102 -92 -12 -23 -14 -148 -14 -756 l0
-729 23 -34 c66 -99 191 -114 271 -34 57 57 58 66 54 830 -3 655 -4 692 -22
728 -35 71 -133 112 -210 87z"/>
</g>
</svg>
